PathFileType	4	(X/Y/Z)	/Users/itak/Documents/Research/Walk-IL/dataset/trc/00410_00012.trc
DataRate	CameraRate	NumFrames	NumMarkers	Units	OrigDataRate	OrigDataStartFrame	OrigNumFrames
100.000000	100.000000	4	56	mm	100.000000	395	527
Frame#	Time	RPSI			LPSI			L3			STRN			T10			C7			CLAV			RBAK			LBAK			LSHO			LUPA			LAEL			LAOL			LWTS			LWPS			LFRA			LIFD			LHPS			LHTS			RSHO			RUPA			RAEL			RAOL			RWTS			RWPS			RFRA			RIFD			RHTS			RHPS			RBHD			LFHD			RFHD			LBHD			LHIP			RHIP			RASI			LASI			LKNE			LTHI			LANK			LTIP			LTOE			LMT1			LMT5			LHEE			RKNE			RTHI			RANK			RTIP			RTOE			RMT1			RMT5			RHEE			*53			*54			*55			
		X1	Y1	Z1	X2	Y2	Z2	X3	Y3	Z3	X4	Y4	Z4	X5	Y5	Z5	X6	Y6	Z6	X7	Y7	Z7	X8	Y8	Z8	X9	Y9	Z9	X10	Y10	Z10	X11	Y11	Z11	X12	Y12	Z12	X13	Y13	Z13	X14	Y14	Z14	X15	Y15	Z15	X16	Y16	Z16	X17	Y17	Z17	X18	Y18	Z18	X19	Y19	Z19	X20	Y20	Z20	X21	Y21	Z21	X22	Y22	Z22	X23	Y23	Z23	X24	Y24	Z24	X25	Y25	Z25	X26	Y26	Z26	X27	Y27	Z27	X28	Y28	Z28	X29	Y29	Z29	X30	Y30	Z30	X31	Y31	Z31	X32	Y32	Z32	X33	Y33	Z33	X34	Y34	Z34	X35	Y35	Z35	X36	Y36	Z36	X37	Y37	Z37	X38	Y38	Z38	X39	Y39	Z39	X40	Y40	Z40	X41	Y41	Z41	X42	Y42	Z42	X43	Y43	Z43	X44	Y44	Z44	X45	Y45	Z45	X46	Y46	Z46	X47	Y47	Z47	X48	Y48	Z48	X49	Y49	Z49	X50	Y50	Z50	X51	Y51	Z51	X52	Y52	Z52	X53	Y53	Z53	X54	Y54	Z54	X55	Y55	Z55	X56	Y56	Z56	

396	3.95	900.4244384765625	954.9920654296875	290.9694519042969	778.1078491210938	949.1884155273438	240.9187774658203	839.1680297851562	1037.773315429688	270.2464904785156	936.0831909179688	1201.25634765625	59.86449432373047	822.2527465820312	1137.369384765625	278.4327087402344	827.2242431640625	1387.77099609375	250.6914825439453	906.5559692382812	1316.279174804688	113.9634170532227	864.7410278320312	1241.255859375	317.0168151855469	728.2905883789062	1351.6259765625	215.3827056884766	724.8226928710938	1370.087036132812	115.8137054443359	648.6144409179688	1254.766723632812	106.5146255493164	629.0101928710938	1064.254150390625	70.24380493164062	656.8035278320312	1033.857055664062	146.6953735351562	728.248291015625	917.38427734375	-64.8580322265625	650.6542358398438	885.67431640625	-58.82235336303711	632.3961181640625	979.2313232421875	21.85304641723633	744.7595825195312	763.7893676757812	-155.9510955810547	676.1342163085938	818.7588500976562	-108.9682540893555	730.3969116210938	846.7843627929688	-135.2738494873047	990.8843994140625	1367.923583984375	276.0992431640625	1030.476440429688	1305.570678710938	319.1256103515625	1048.7705078125	1047.385620117188	365.7913208007812	963.8995361328125	1039.378173828125	325.5313720703125	1097.626098632812	819.5294799804688	274.5515747070312	1118.297485351562	816.2431640625	345.6836242675781	1075.0361328125	981.8765869140625	364.3010559082031	1085.391967773438	648.8338012695312	300.92333984375	1117.487060546875	712.4249877929688	286.1216735839844	1115.17236328125	727.0523071289062	354.3609313964844	942.1502075195312	1584.959838867188	227.4662933349609	854.5130004882812	1564.613403320312	48.81753540039062	968.0454711914062	1573.335693359375	95.43570709228516	789.7488403320312	1574.298828125	181.5453186035156	706.977294921875	941.0778198242188	114.0025024414062	1038.323974609375	942.8297119140625	256.1690673828125	1038.0732421875	963.416259765625	114.647331237793	790.8590698242188	946.6597290039062	23.2362003326416	820.2402954101562	449.9973754882812	93.43811798095703	784.0975341796875	590.6853637695312	85.41221618652344	851.1089477539062	33.42807769775391	247.5272674560547	829.46875	221.8253936767578	165.2701110839844	1019.519409179688	29.88079452514648	95.29824829101562	1000.916748046875	35.47146224975586	179.0563049316406	906.58154296875	32.73673248291016	132.9380645751953	879.4059448242188	35.65069198608398	307.7138366699219	1126.754150390625	500.17919921875	60.35890197753906	1106.054931640625	745.4877319335938	127.3157043457031	1108.1064453125	90.71340942382812	196.013427734375	1131.68896484375	373.5470275878906	73.12798309326172	1148.905517578125	51.00343322753906	23.37723922729492	1084.166381835938	53.68631362915039	67.04587554931641	1159.654296875	63.64026260375977	133.3917846679688	1024.929077148438	81.64498138427734	231.1639404296875	nan	nan	nan	nan	nan	nan	nan	nan	nan	
397	3.96	907.52734375	954.81640625	282.9187622070312	784.5006103515625	949.19775390625	235.1813201904297	845.0633544921875	1037.222412109375	263.7469177246094	939.328369140625	1201.160400390625	51.39163589477539	827.8927001953125	1136.758544921875	272.4408569335938	832.6480712890625	1387.245483398438	243.8780059814453	910.2291259765625	1315.891967773438	106.2960586547852	870.8388061523438	1240.836059570312	309.7027282714844	733.310546875	1351.185302734375	209.8649597167969	728.5726928710938	1369.839477539062	110.2809600830078	652.1600341796875	1254.47119140625	101.8266983032227	632.547119140625	1064.421875	65.60498809814453	661.1311645507812	1033.228637695312	141.5173645019531	732.2161865234375	923.660400390625	-74.10235595703125	655.339599609375	890.2957763671875	-68.39853668212891	636.2796630859375	981.27978515625	15.48637390136719	751.4055786132812	773.4168701171875	-170.0800628662109	681.8207397460938	825.38818359375	-120.8333206176758	735.3076171875	855.3917846679688	-146.8206329345703	996.6015625	1367.407592773438	267.3491516113281	1036.571899414062	1305.267944335938	310.0365905761719	1053.701538085938	1047.334228515625	358.2289733886719	968.49072265625	1039.692749023438	318.7958679199219	1099.446044921875	817.5197143554688	270.2611389160156	1120.673950195312	815.29541015625	341.263916015625	1079.390014648438	981.7594604492188	357.4094543457031	1084.635986328125	647.5137329101562	300.2089538574219	1117.692749023438	710.2765502929688	283.8083190917969	1116.252319335938	726.3189086914062	351.7509155273438	947.9196166992188	1584.272216796875	218.8357238769531	858.604736328125	1563.691040039062	41.07396697998047	972.58154296875	1572.071533203125	86.63184356689453	795.1039428710938	1574.192993164062	174.3905181884766	711.1724853515625	940.6887817382812	109.1768188476562	1044.78271484375	942.904296875	245.9158172607422	1042.196533203125	963.7881469726562	104.3669204711914	793.6434326171875	946.2617797851562	16.91144180297852	821.6847534179688	449.5786743164062	90.85271453857422	786.2149047851562	590.4307861328125	82.190673828125	851.498779296875	33.69858169555664	247.6414642333984	830.4132080078125	221.7872924804688	164.3143768310547	1019.559631347656	29.65797233581543	95.02823638916016	1000.94482421875	35.02425384521484	178.9326171875	906.74951171875	32.78427124023438	132.9447937011719	879.8041381835938	35.9642219543457	307.8218383789062	1131.081176757812	501.0701599121094	46.41971588134766	1110.904174804688	746.1911010742188	115.1397476196289	1123.816772460938	84.0560302734375	160.1655120849609	1138.912231445312	373.9905700683594	53.25654220581055	1162.0927734375	54.49901962280273	-14.91046142578125	1097.974365234375	53.55172729492188	29.98781585693359	1174.587036132812	61.27626419067383	95.13545227050781	1041.333618164062	71.237548828125	196.3090057373047	nan	nan	nan	nan	nan	nan	nan	nan	nan	
398	3.97	914.5486450195312	954.4641723632812	274.7181701660156	790.8702392578125	949.0359497070312	229.2941436767578	850.9397583007812	1036.44580078125	257.0030517578125	942.562744140625	1200.8291015625	42.97273635864258	833.6435546875	1135.980590820312	266.5185241699219	838.0191650390625	1386.509033203125	236.9949798583984	913.8963623046875	1315.278076171875	98.62574005126953	876.8956909179688	1240.194702148438	302.3473510742188	738.30419921875	1350.525268554688	204.2614593505859	732.3248291015625	1369.343017578125	104.6809005737305	655.7552490234375	1253.912963867188	97.05934906005859	636.0939331054688	1064.321655273438	61.04530334472656	665.55078125	1032.344116210938	136.3958129882812	736.0150146484375	929.5718994140625	-83.01854705810547	659.8626098632812	894.5945434570312	-77.603759765625	640.1024780273438	983.0195922851562	9.319937705993652	757.7214965820312	782.684326171875	-183.4935455322266	687.2969360351562	831.6887817382812	-132.1581268310547	739.9640502929688	863.5927124023438	-157.8478088378906	1002.245483398438	1366.695556640625	258.5745239257812	1042.592529296875	1304.77587890625	300.9282836914062	1058.636474609375	1047.141845703125	350.6643981933594	973.0781860351562	1039.801635742188	312.0122680664062	1101.406616210938	815.5390625	265.7555236816406	1123.266723632812	814.3211059570312	336.5970153808594	1083.780517578125	981.4960327148438	350.4483642578125	1084.176513671875	646.286376953125	299.132568359375	1118.140869140625	708.2158203125	281.1857299804688	1117.64111328125	725.5905151367188	348.8198852539062	953.594482421875	1583.3564453125	210.2700805664062	862.6128540039062	1562.639038085938	33.39829635620117	977.0164794921875	1570.687744140625	77.89785003662109	800.3844604492188	1573.834228515625	167.3018646240234	715.3660278320312	940.1759643554688	104.3163604736328	1051.171875	942.7232666015625	235.5326843261719	1046.255249023438	963.842529296875	94.03294372558594	796.4747314453125	945.81103515625	10.49005794525146	823.1909790039062	449.0480651855469	88.02333068847656	788.2869262695312	590.0702514648438	78.75668334960938	851.900634765625	33.95111846923828	247.7694702148438	831.3975219726562	221.7068023681641	163.2170715332031	1019.599914550781	29.45744514465332	94.73813629150391	1001.030517578125	34.70058822631836	178.8802337646484	906.9365234375	32.81084442138672	132.9583282470703	880.249755859375	36.24449920654297	307.9596252441406	1135.362915039062	501.4128723144531	33.03585815429688	1115.552490234375	746.4390869140625	103.2622146606445	1138.2978515625	78.13877868652344	123.9231796264648	1145.705810546875	374.2785339355469	33.7386589050293	1173.26171875	58.51809692382812	-53.03108596801758	1109.998413085938	54.27665328979492	-6.970359325408936	1187.916381835938	59.42964172363281	56.62834167480469	1056.6298828125	61.87470245361328	161.0181884765625	nan	nan	nan	nan	nan	nan	nan	nan	nan	
399	3.98	921.5169067382812	953.9201049804688	266.3778991699219	797.2222900390625	948.6714477539062	223.1958618164062	856.9111938476562	1035.462768554688	250.0312805175781	945.7545166015625	1200.229614257812	34.64562606811523	839.5548706054688	1135.039428710938	260.6284484863281	843.3465576171875	1385.569580078125	230.0419921875	917.5640258789062	1314.43212890625	90.94551849365234	882.9169921875	1239.32470703125	294.9442443847656	743.2738037109375	1349.649291992188	198.5638122558594	736.0740356445312	1368.591064453125	99.00214385986328	659.4036865234375	1253.087280273438	92.20289611816406	639.6678466796875	1063.942749023438	56.51785659790039	670.0516967773438	1031.198364257812	131.2880859375	739.6829223632812	935.04296875	-91.60980987548828	664.2478637695312	898.5401000976562	-86.48383331298828	643.8914184570312	984.4151000976562	3.302690029144287	763.6965942382812	791.4930419921875	-196.2458953857422	692.572021484375	837.6116943359375	-142.9996948242188	744.3938598632812	871.3123779296875	-168.3781280517578	1007.816772460938	1365.7841796875	249.7751617431641	1048.527221679688	1304.08935546875	291.8053588867188	1063.565185546875	1046.790283203125	343.0975646972656	977.6631469726562	1039.671142578125	305.1547546386719	1103.528198242188	813.570556640625	261.0131530761719	1126.080444335938	813.2991333007812	331.6669616699219	1088.203247070312	981.0714721679688	343.415771484375	1084.048706054688	645.111572265625	297.6439208984375	1118.85986328125	706.2172241210938	278.21728515625	1119.358154296875	724.83642578125	345.5381469726562	959.1778564453125	1582.217163085938	201.7674407958984	866.5479736328125	1561.46337890625	25.78586387634277	981.3646240234375	1569.190307617188	69.233154296875	805.5782470703125	1573.217407226562	160.2672882080078	719.5496826171875	939.5369262695312	99.43781280517578	1057.485107421875	942.2537231445312	225.0082092285156	1050.231689453125	963.563720703125	83.63201904296875	799.3358764648438	945.331298828125	3.966211318969727	824.7691650390625	448.40283203125	84.93833160400391	790.33447265625	589.5982666015625	75.09627532958984	852.303466796875	34.17435836791992	247.9081573486328	832.40673828125	221.5822906494141	161.9576568603516	1019.630493164062	29.27673530578613	94.43946075439453	1001.186462402344	34.56294631958008	178.9053649902344	907.1361694335938	32.81598281860352	132.9762573242188	880.7003784179688	36.51086807250977	308.1112365722656	1139.65673828125	501.2393798828125	20.13539123535156	1120.016845703125	746.2294311523438	91.67379760742188	1151.466430664062	73.04031372070312	87.51767730712891	1152.086059570312	374.4446411132812	14.60692024230957	1182.35107421875	63.04573059082031	-90.73986053466797	1120.1748046875	55.84966659545898	-43.55004119873047	1199.560424804688	58.14479827880859	18.1004467010498	1070.745971679688	53.72552871704102	125.6084747314453	nan	nan	nan	nan	nan	nan	nan	nan	nan	
